<?xml version="1.0" encoding="UTF-8" standalone="no"?>
<!DOCTYPE svg PUBLIC "-//W3C//DTD SVG 1.1//EN" "http://www.w3.org/Graphics/SVG/1.1/DTD/svg11.dtd">
<svg width="100%" height="100%" viewBox="0 0 479 109" version="1.1" xmlns="http://www.w3.org/2000/svg" xmlns:xlink="http://www.w3.org/1999/xlink" xml:space="preserve" xmlns:serif="http://www.serif.com/" style="fill-rule:evenodd;clip-rule:evenodd;">
    <g transform="matrix(1,0,0,1,-1286.05,-48.3595)">
        <g transform="matrix(1,0,0,1,1606.3,2.84217e-14)">
            <g transform="matrix(0.595436,0,0,0.595436,-1458.9,-119.361)">
                <g>
                    <g id="path2" transform="matrix(0.514299,0,0,0.514299,1913.17,283.671)">
                        <path d="M220.033,13.3C225.7,13.3 230.7,14.3 235.033,16.3C239.367,18.3 243.45,21.05 247.283,24.55C251.117,28.05 255.283,33.217 259.783,40.05C264.283,46.883 268.7,51.8 273.033,54.8C277.367,57.8 282.117,60.883 287.283,64.05C292.45,67.217 296.367,70.8 299.033,74.8C301.7,78.8 303.617,82.633 304.783,86.3C305.95,89.967 305.95,95.967 304.783,104.3C303.617,112.633 301.7,119.3 299.033,124.3C296.367,129.3 292.117,134.05 286.283,138.55C280.45,143.05 274.7,146.633 269.033,149.3C263.367,151.967 258.367,153.967 254.033,155.3C249.7,156.633 240.117,158.05 225.283,159.55C210.45,161.05 202.783,162.05 202.283,162.55L201.533,163.3L202.033,164.55C202.367,165.383 213.033,165.55 234.033,165.05C255.033,164.55 269.533,165.467 277.533,167.8C285.533,170.133 291.617,172.883 295.783,176.05C299.95,179.217 303.2,182.633 305.533,186.3C307.867,189.967 309.7,193.467 311.033,196.8C312.367,200.133 312.533,206.633 311.533,216.3C310.533,225.967 308.95,232.55 306.783,236.05C304.617,239.55 303.367,241.717 303.033,242.55L302.533,243.8L298.283,246.3C295.45,247.967 292.033,251.467 288.033,256.8C284.033,262.133 280.7,267.633 278.033,273.3C275.367,278.967 273.117,283.05 271.283,285.55C269.45,288.05 267.7,289.883 266.033,291.05C264.367,292.217 263.033,293.55 262.033,295.05C261.033,296.55 257.867,298.633 252.533,301.3C247.2,303.967 241.033,304.8 234.033,303.8C227.033,302.8 221.117,300.55 216.283,297.05C211.45,293.55 207.367,290.133 204.033,286.8C200.7,283.467 197.283,279.383 193.783,274.55C190.283,269.717 187.95,266.217 186.783,264.05C185.617,261.883 184.2,256.8 182.533,248.8C180.867,240.8 179.033,233.8 177.033,227.8L174.033,218.8L172.533,225.3C171.533,229.633 171.533,239.133 172.533,253.8C173.533,268.467 175.7,280.133 179.033,288.8C182.367,297.467 185.45,303.55 188.283,307.05C191.117,310.55 194.45,314.05 198.283,317.55C202.117,321.05 203.7,324.633 203.033,328.3C202.367,331.967 201.95,333.883 201.783,334.05L201.533,334.3L194.533,332.8C189.867,331.8 185.283,329.383 180.783,325.55C176.283,321.717 172.533,317.633 169.533,313.3C166.533,308.967 163.7,303.3 161.033,296.3C158.367,289.3 156.533,282.467 155.533,275.8C154.533,269.133 154.45,257.05 155.283,239.55L156.533,213.3L153.283,214.05C151.117,214.55 149.533,216.3 148.533,219.3C147.533,222.3 145.7,232.133 143.033,248.8C140.367,265.467 137.7,276.3 135.033,281.3C132.367,286.3 129.95,289.883 127.783,292.05C125.617,294.217 122.867,296.467 119.533,298.8C116.2,301.133 112.533,302.967 108.533,304.3C104.533,305.633 98.2,305.8 89.533,304.8C80.867,303.8 74.533,302.133 70.533,299.8C66.533,297.467 61.95,293.05 56.783,286.55C51.617,280.05 47.783,274.133 45.283,268.8L41.533,260.8L40.033,259.55C39.033,258.717 37.117,257.05 34.283,254.55C31.45,252.05 27.867,247.967 23.533,242.3C19.2,236.633 16.7,232.8 16.033,230.8C15.367,228.8 15.533,223.3 16.533,214.3C17.533,205.3 19.7,198.133 23.033,192.8C26.367,187.467 30.45,182.883 35.283,179.05C40.117,175.217 45.2,172.3 50.533,170.3C55.867,168.3 68.033,167.133 87.033,166.8C106.033,166.467 116.283,165.55 117.783,164.05L120.033,161.8L118.783,160.55C117.95,159.717 107.533,158.467 87.533,156.8C67.533,155.133 53.033,152.3 44.033,148.3C35.033,144.3 28.783,140.55 25.283,137.05C21.783,133.55 19.367,130.633 18.033,128.3C16.7,125.967 15.867,121.633 15.533,115.3C15.2,108.967 16.283,102.717 18.783,96.55C21.283,90.383 26.7,83.8 35.033,76.8C43.367,69.8 47.867,66.217 48.533,66.05L49.533,65.8L51.033,63.05C52.033,61.217 54.95,57.217 59.783,51.05C64.617,44.883 68.283,40.383 70.783,37.55C73.283,34.717 76.867,31.467 81.533,27.8C86.2,24.133 91.2,21.467 96.533,19.8C101.867,18.133 106.533,17.467 110.533,17.8C114.533,18.133 119.2,19.467 124.533,21.8C129.867,24.133 134.617,27.217 138.783,31.05C142.95,34.883 146.033,38.967 148.033,43.3C150.033,47.633 151.533,52.8 152.533,58.8C153.533,64.8 154.95,76.133 156.783,92.8C158.617,109.467 159.867,117.8 160.533,117.8L161.533,117.8L162.283,115.3C162.783,113.633 163.7,103.133 165.033,83.8C166.367,64.467 167.533,53.633 168.533,51.3C169.533,48.967 171.95,45.05 175.783,39.55C179.617,34.05 184.2,29.3 189.533,25.3C194.867,21.3 199.867,18.3 204.533,16.3C209.2,14.3 214.367,13.3 220.033,13.3L220.033,13.3Z" style="fill:none;stroke:white;stroke-width:8.33px;"/>
                    </g>
                    <g transform="matrix(0.439269,0,0,0.343599,1755.01,97.0115)">
                        <text x="794.198px" y="1038.96px" style="font-family:'BodoniSvtyTwoITCTT-Book', 'Bodoni 72';font-size:333.337px;fill:white;">MASSAGE</text>
                    </g>
                    <g transform="matrix(0.350235,0,0,0.350235,1741.84,-75.7654)">
                        <text x="1036.53px" y="1153.73px" style="font-family:'Avenir-Book', 'Avenir';font-size:142.761px;fill:white;">skørping velvær<tspan x="2043.71px " y="1153.73px ">e</tspan></text>
                    </g>
                </g>
            </g>
        </g>
    </g>
</svg>
