<?xml version="1.0" encoding="UTF-8" standalone="no"?>
<!DOCTYPE svg PUBLIC "-//W3C//DTD SVG 1.1//EN" "http://www.w3.org/Graphics/SVG/1.1/DTD/svg11.dtd">
<svg width="100%" height="100%" viewBox="0 0 675 176" version="1.1" xmlns="http://www.w3.org/2000/svg" xmlns:xlink="http://www.w3.org/1999/xlink" xml:space="preserve" xmlns:serif="http://www.serif.com/" style="fill-rule:evenodd;clip-rule:evenodd;">
    <g transform="matrix(1,0,0,1,-1372.22,-207.001)">
        <g transform="matrix(1,0,0,1,-0.270341,0)">
            <g transform="matrix(0.808676,0,0,0.808676,-149.069,6.00457)">
                <g>
                    <g id="path2" transform="matrix(0.612251,0,0,0.612251,1882.59,250.926)">
                        <path d="M220.033,13.3C225.7,13.3 230.7,14.3 235.033,16.3C239.367,18.3 243.45,21.05 247.283,24.55C251.117,28.05 255.283,33.217 259.783,40.05C264.283,46.883 268.7,51.8 273.033,54.8C277.367,57.8 282.117,60.883 287.283,64.05C292.45,67.217 296.367,70.8 299.033,74.8C301.7,78.8 303.617,82.633 304.783,86.3C305.95,89.967 305.95,95.967 304.783,104.3C303.617,112.633 301.7,119.3 299.033,124.3C296.367,129.3 292.117,134.05 286.283,138.55C280.45,143.05 274.7,146.633 269.033,149.3C263.367,151.967 258.367,153.967 254.033,155.3C249.7,156.633 240.117,158.05 225.283,159.55C210.45,161.05 202.783,162.05 202.283,162.55L201.533,163.3L202.033,164.55C202.367,165.383 213.033,165.55 234.033,165.05C255.033,164.55 269.533,165.467 277.533,167.8C285.533,170.133 291.617,172.883 295.783,176.05C299.95,179.217 303.2,182.633 305.533,186.3C307.867,189.967 309.7,193.467 311.033,196.8C312.367,200.133 312.533,206.633 311.533,216.3C310.533,225.967 308.95,232.55 306.783,236.05C304.617,239.55 303.367,241.717 303.033,242.55L302.533,243.8L298.283,246.3C295.45,247.967 292.033,251.467 288.033,256.8C284.033,262.133 280.7,267.633 278.033,273.3C275.367,278.967 273.117,283.05 271.283,285.55C269.45,288.05 267.7,289.883 266.033,291.05C264.367,292.217 263.033,293.55 262.033,295.05C261.033,296.55 257.867,298.633 252.533,301.3C247.2,303.967 241.033,304.8 234.033,303.8C227.033,302.8 221.117,300.55 216.283,297.05C211.45,293.55 207.367,290.133 204.033,286.8C200.7,283.467 197.283,279.383 193.783,274.55C190.283,269.717 187.95,266.217 186.783,264.05C185.617,261.883 184.2,256.8 182.533,248.8C180.867,240.8 179.033,233.8 177.033,227.8L174.033,218.8L172.533,225.3C171.533,229.633 171.533,239.133 172.533,253.8C173.533,268.467 175.7,280.133 179.033,288.8C182.367,297.467 185.45,303.55 188.283,307.05C191.117,310.55 194.45,314.05 198.283,317.55C202.117,321.05 203.7,324.633 203.033,328.3C202.367,331.967 201.95,333.883 201.783,334.05L201.533,334.3L194.533,332.8C189.867,331.8 185.283,329.383 180.783,325.55C176.283,321.717 172.533,317.633 169.533,313.3C166.533,308.967 163.7,303.3 161.033,296.3C158.367,289.3 156.533,282.467 155.533,275.8C154.533,269.133 154.45,257.05 155.283,239.55L156.533,213.3L153.283,214.05C151.117,214.55 149.533,216.3 148.533,219.3C147.533,222.3 145.7,232.133 143.033,248.8C140.367,265.467 137.7,276.3 135.033,281.3C132.367,286.3 129.95,289.883 127.783,292.05C125.617,294.217 122.867,296.467 119.533,298.8C116.2,301.133 112.533,302.967 108.533,304.3C104.533,305.633 98.2,305.8 89.533,304.8C80.867,303.8 74.533,302.133 70.533,299.8C66.533,297.467 61.95,293.05 56.783,286.55C51.617,280.05 47.783,274.133 45.283,268.8L41.533,260.8L40.033,259.55C39.033,258.717 37.117,257.05 34.283,254.55C31.45,252.05 27.867,247.967 23.533,242.3C19.2,236.633 16.7,232.8 16.033,230.8C15.367,228.8 15.533,223.3 16.533,214.3C17.533,205.3 19.7,198.133 23.033,192.8C26.367,187.467 30.45,182.883 35.283,179.05C40.117,175.217 45.2,172.3 50.533,170.3C55.867,168.3 68.033,167.133 87.033,166.8C106.033,166.467 116.283,165.55 117.783,164.05L120.033,161.8L118.783,160.55C117.95,159.717 107.533,158.467 87.533,156.8C67.533,155.133 53.033,152.3 44.033,148.3C35.033,144.3 28.783,140.55 25.283,137.05C21.783,133.55 19.367,130.633 18.033,128.3C16.7,125.967 15.867,121.633 15.533,115.3C15.2,108.967 16.283,102.717 18.783,96.55C21.283,90.383 26.7,83.8 35.033,76.8C43.367,69.8 47.867,66.217 48.533,66.05L49.533,65.8L51.033,63.05C52.033,61.217 54.95,57.217 59.783,51.05C64.617,44.883 68.283,40.383 70.783,37.55C73.283,34.717 76.867,31.467 81.533,27.8C86.2,24.133 91.2,21.467 96.533,19.8C101.867,18.133 106.533,17.467 110.533,17.8C114.533,18.133 119.2,19.467 124.533,21.8C129.867,24.133 134.617,27.217 138.783,31.05C142.95,34.883 146.033,38.967 148.033,43.3C150.033,47.633 151.533,52.8 152.533,58.8C153.533,64.8 154.95,76.133 156.783,92.8C158.617,109.467 159.867,117.8 160.533,117.8L161.533,117.8L162.283,115.3C162.783,113.633 163.7,103.133 165.033,83.8C166.367,64.467 167.533,53.633 168.533,51.3C169.533,48.967 171.95,45.05 175.783,39.55C179.617,34.05 184.2,29.3 189.533,25.3C194.867,21.3 199.867,18.3 204.533,16.3C209.2,14.3 214.367,13.3 220.033,13.3L220.033,13.3Z" style="fill:none;stroke:white;stroke-width:8.33px;"/>
                    </g>
                    <g transform="matrix(0.439269,0,0,0.343599,1755.01,97.0115)">
                        <g transform="matrix(333.337,0,0,333.337,794.198,1038.96)">
                            <path d="M0.747,-0.008C0.747,-0.001 0.74,0.002 0.726,0.002L0.715,0.002C0.706,0.002 0.689,0.002 0.664,0.001C0.639,0 0.62,-0 0.607,-0C0.587,-0 0.564,0 0.537,0.001L0.476,0.001C0.462,0.001 0.455,-0.002 0.455,-0.008C0.455,-0.015 0.465,-0.018 0.484,-0.018C0.518,-0.018 0.539,-0.022 0.546,-0.029C0.549,-0.032 0.551,-0.055 0.551,-0.096L0.551,-0.614C0.551,-0.613 0.547,-0.602 0.54,-0.579C0.513,-0.498 0.475,-0.377 0.424,-0.215L0.377,-0.056C0.368,-0.025 0.361,-0.009 0.357,-0.009C0.352,-0.009 0.347,-0.017 0.342,-0.033C0.323,-0.094 0.268,-0.245 0.178,-0.487L0.138,-0.594C0.139,-0.581 0.139,-0.564 0.139,-0.542L0.139,-0.217C0.139,-0.095 0.14,-0.033 0.142,-0.032C0.147,-0.023 0.163,-0.019 0.19,-0.019C0.212,-0.019 0.223,-0.016 0.223,-0.01C0.223,-0.003 0.216,-0 0.202,-0C0.193,-0 0.185,-0 0.178,-0.001C0.169,-0.002 0.16,-0.002 0.153,-0.002L0.038,0.001C0.026,0.001 0.02,-0.002 0.02,-0.008C0.02,-0.015 0.039,-0.018 0.077,-0.019C0.093,-0.019 0.102,-0.022 0.105,-0.027C0.108,-0.032 0.109,-0.05 0.109,-0.079L0.109,-0.558C0.109,-0.613 0.108,-0.643 0.107,-0.648C0.104,-0.657 0.099,-0.664 0.09,-0.667C0.081,-0.67 0.063,-0.673 0.034,-0.675C0.023,-0.676 0.018,-0.679 0.018,-0.684C0.018,-0.691 0.028,-0.695 0.047,-0.695C0.05,-0.695 0.055,-0.695 0.064,-0.694L0.116,-0.694C0.155,-0.694 0.183,-0.694 0.199,-0.695C0.202,-0.686 0.222,-0.634 0.258,-0.538C0.273,-0.498 0.316,-0.381 0.387,-0.188C0.4,-0.231 0.413,-0.274 0.426,-0.316L0.532,-0.647C0.538,-0.666 0.543,-0.682 0.548,-0.695L0.698,-0.696C0.72,-0.696 0.733,-0.695 0.736,-0.693C0.739,-0.691 0.741,-0.688 0.741,-0.684C0.741,-0.677 0.735,-0.674 0.724,-0.674C0.705,-0.674 0.693,-0.673 0.686,-0.672C0.67,-0.669 0.659,-0.664 0.653,-0.656C0.65,-0.651 0.648,-0.612 0.648,-0.539L0.648,-0.074C0.648,-0.047 0.651,-0.032 0.656,-0.027C0.665,-0.021 0.686,-0.018 0.721,-0.018L0.727,-0.018C0.74,-0.018 0.747,-0.015 0.747,-0.008Z" style="fill:white;fill-rule:nonzero;"/>
                        </g>
                        <g transform="matrix(333.337,0,0,333.337,1045.87,1038.96)">
                            <path d="M0.647,-0.007C0.647,-0.001 0.642,0.002 0.632,0.002C0.625,0.002 0.619,0.002 0.614,0.001L0.487,-0.001L0.36,0.001C0.355,0.002 0.35,0.002 0.345,0.002C0.332,0.002 0.325,-0.001 0.325,-0.008C0.325,-0.015 0.334,-0.019 0.352,-0.019C0.411,-0.02 0.44,-0.026 0.44,-0.037C0.44,-0.038 0.439,-0.04 0.438,-0.045L0.43,-0.072L0.425,-0.086C0.419,-0.107 0.404,-0.152 0.381,-0.223L0.167,-0.223C0.127,-0.116 0.107,-0.055 0.107,-0.039C0.107,-0.03 0.111,-0.024 0.119,-0.022C0.121,-0.021 0.138,-0.02 0.169,-0.018C0.188,-0.017 0.198,-0.014 0.198,-0.008C0.198,-0.001 0.189,0.002 0.172,0.002C0.141,0.002 0.106,0.001 0.065,-0.002C0.055,-0.003 0.045,-0.003 0.034,-0.003C0.023,-0.003 0.013,-0.002 0.003,-0.001C-0.002,-0 -0.007,-0 -0.01,-0C-0.019,-0 -0.024,-0.003 -0.024,-0.009C-0.024,-0.015 -0.014,-0.018 0.008,-0.019C0.028,-0.02 0.044,-0.023 0.053,-0.029C0.062,-0.034 0.07,-0.045 0.075,-0.061C0.161,-0.306 0.231,-0.503 0.285,-0.652C0.286,-0.66 0.289,-0.669 0.293,-0.679L0.298,-0.697C0.3,-0.704 0.303,-0.708 0.306,-0.708C0.308,-0.708 0.31,-0.706 0.311,-0.702C0.32,-0.676 0.339,-0.622 0.37,-0.539C0.394,-0.474 0.454,-0.312 0.549,-0.052C0.554,-0.037 0.561,-0.028 0.57,-0.024C0.578,-0.02 0.595,-0.018 0.621,-0.017C0.638,-0.016 0.647,-0.013 0.647,-0.007ZM0.375,-0.246C0.364,-0.276 0.347,-0.326 0.322,-0.395L0.274,-0.532C0.246,-0.459 0.212,-0.363 0.173,-0.246L0.375,-0.246Z" style="fill:white;fill-rule:nonzero;"/>
                        </g>
                        <g transform="matrix(333.337,0,0,333.337,1246.54,1038.96)">
                            <path d="M0.469,-0.195C0.469,-0.138 0.447,-0.089 0.404,-0.049C0.36,-0.008 0.307,0.012 0.246,0.012C0.21,0.012 0.167,0.001 0.117,-0.021C0.104,-0.027 0.094,-0.03 0.087,-0.03C0.079,-0.03 0.074,-0.02 0.072,-0.001C0.071,0.009 0.067,0.014 0.059,0.014C0.052,0.014 0.049,0.01 0.049,0.002C0.049,-0.003 0.049,-0.007 0.05,-0.01C0.055,-0.051 0.058,-0.088 0.058,-0.123C0.058,-0.13 0.057,-0.148 0.056,-0.179C0.055,-0.183 0.055,-0.188 0.055,-0.195C0.055,-0.205 0.059,-0.21 0.067,-0.21C0.074,-0.21 0.078,-0.202 0.081,-0.186C0.098,-0.067 0.155,-0.008 0.25,-0.008C0.291,-0.008 0.322,-0.02 0.345,-0.043C0.367,-0.066 0.378,-0.098 0.378,-0.14C0.378,-0.177 0.367,-0.209 0.346,-0.236C0.324,-0.262 0.287,-0.288 0.234,-0.314C0.171,-0.345 0.127,-0.376 0.102,-0.405C0.077,-0.434 0.065,-0.471 0.065,-0.514C0.065,-0.569 0.083,-0.615 0.119,-0.651C0.154,-0.687 0.199,-0.705 0.254,-0.705C0.277,-0.705 0.308,-0.697 0.348,-0.682C0.362,-0.677 0.372,-0.674 0.379,-0.674C0.386,-0.674 0.391,-0.675 0.394,-0.678C0.396,-0.681 0.398,-0.688 0.4,-0.699C0.401,-0.706 0.405,-0.709 0.411,-0.709C0.418,-0.709 0.421,-0.705 0.421,-0.697C0.421,-0.692 0.421,-0.688 0.42,-0.685C0.418,-0.669 0.417,-0.65 0.417,-0.627C0.417,-0.595 0.419,-0.57 0.422,-0.551L0.423,-0.535C0.424,-0.528 0.421,-0.524 0.414,-0.524C0.407,-0.524 0.402,-0.532 0.399,-0.547C0.392,-0.586 0.374,-0.619 0.347,-0.646C0.32,-0.672 0.289,-0.685 0.255,-0.685C0.222,-0.685 0.195,-0.674 0.176,-0.653C0.156,-0.632 0.146,-0.603 0.146,-0.566C0.146,-0.523 0.16,-0.489 0.189,-0.463C0.205,-0.448 0.24,-0.428 0.293,-0.401C0.356,-0.37 0.401,-0.338 0.428,-0.306C0.455,-0.273 0.469,-0.236 0.469,-0.195Z" style="fill:white;fill-rule:nonzero;"/>
                        </g>
                        <g transform="matrix(333.337,0,0,333.337,1412.54,1038.96)">
                            <path d="M0.469,-0.195C0.469,-0.138 0.447,-0.089 0.404,-0.049C0.36,-0.008 0.307,0.012 0.246,0.012C0.21,0.012 0.167,0.001 0.117,-0.021C0.104,-0.027 0.094,-0.03 0.087,-0.03C0.079,-0.03 0.074,-0.02 0.072,-0.001C0.071,0.009 0.067,0.014 0.059,0.014C0.052,0.014 0.049,0.01 0.049,0.002C0.049,-0.003 0.049,-0.007 0.05,-0.01C0.055,-0.051 0.058,-0.088 0.058,-0.123C0.058,-0.13 0.057,-0.148 0.056,-0.179C0.055,-0.183 0.055,-0.188 0.055,-0.195C0.055,-0.205 0.059,-0.21 0.067,-0.21C0.074,-0.21 0.078,-0.202 0.081,-0.186C0.098,-0.067 0.155,-0.008 0.25,-0.008C0.291,-0.008 0.322,-0.02 0.345,-0.043C0.367,-0.066 0.378,-0.098 0.378,-0.14C0.378,-0.177 0.367,-0.209 0.346,-0.236C0.324,-0.262 0.287,-0.288 0.234,-0.314C0.171,-0.345 0.127,-0.376 0.102,-0.405C0.077,-0.434 0.065,-0.471 0.065,-0.514C0.065,-0.569 0.083,-0.615 0.119,-0.651C0.154,-0.687 0.199,-0.705 0.254,-0.705C0.277,-0.705 0.308,-0.697 0.348,-0.682C0.362,-0.677 0.372,-0.674 0.379,-0.674C0.386,-0.674 0.391,-0.675 0.394,-0.678C0.396,-0.681 0.398,-0.688 0.4,-0.699C0.401,-0.706 0.405,-0.709 0.411,-0.709C0.418,-0.709 0.421,-0.705 0.421,-0.697C0.421,-0.692 0.421,-0.688 0.42,-0.685C0.418,-0.669 0.417,-0.65 0.417,-0.627C0.417,-0.595 0.419,-0.57 0.422,-0.551L0.423,-0.535C0.424,-0.528 0.421,-0.524 0.414,-0.524C0.407,-0.524 0.402,-0.532 0.399,-0.547C0.392,-0.586 0.374,-0.619 0.347,-0.646C0.32,-0.672 0.289,-0.685 0.255,-0.685C0.222,-0.685 0.195,-0.674 0.176,-0.653C0.156,-0.632 0.146,-0.603 0.146,-0.566C0.146,-0.523 0.16,-0.489 0.189,-0.463C0.205,-0.448 0.24,-0.428 0.293,-0.401C0.356,-0.37 0.401,-0.338 0.428,-0.306C0.455,-0.273 0.469,-0.236 0.469,-0.195Z" style="fill:white;fill-rule:nonzero;"/>
                        </g>
                        <g transform="matrix(333.337,0,0,333.337,1578.54,1038.96)">
                            <path d="M0.647,-0.007C0.647,-0.001 0.642,0.002 0.632,0.002C0.625,0.002 0.619,0.002 0.614,0.001L0.487,-0.001L0.36,0.001C0.355,0.002 0.35,0.002 0.345,0.002C0.332,0.002 0.325,-0.001 0.325,-0.008C0.325,-0.015 0.334,-0.019 0.352,-0.019C0.411,-0.02 0.44,-0.026 0.44,-0.037C0.44,-0.038 0.439,-0.04 0.438,-0.045L0.43,-0.072L0.425,-0.086C0.419,-0.107 0.404,-0.152 0.381,-0.223L0.167,-0.223C0.127,-0.116 0.107,-0.055 0.107,-0.039C0.107,-0.03 0.111,-0.024 0.119,-0.022C0.121,-0.021 0.138,-0.02 0.169,-0.018C0.188,-0.017 0.198,-0.014 0.198,-0.008C0.198,-0.001 0.189,0.002 0.172,0.002C0.141,0.002 0.106,0.001 0.065,-0.002C0.055,-0.003 0.045,-0.003 0.034,-0.003C0.023,-0.003 0.013,-0.002 0.003,-0.001C-0.002,-0 -0.007,-0 -0.01,-0C-0.019,-0 -0.024,-0.003 -0.024,-0.009C-0.024,-0.015 -0.014,-0.018 0.008,-0.019C0.028,-0.02 0.044,-0.023 0.053,-0.029C0.062,-0.034 0.07,-0.045 0.075,-0.061C0.161,-0.306 0.231,-0.503 0.285,-0.652C0.286,-0.66 0.289,-0.669 0.293,-0.679L0.298,-0.697C0.3,-0.704 0.303,-0.708 0.306,-0.708C0.308,-0.708 0.31,-0.706 0.311,-0.702C0.32,-0.676 0.339,-0.622 0.37,-0.539C0.394,-0.474 0.454,-0.312 0.549,-0.052C0.554,-0.037 0.561,-0.028 0.57,-0.024C0.578,-0.02 0.595,-0.018 0.621,-0.017C0.638,-0.016 0.647,-0.013 0.647,-0.007ZM0.375,-0.246C0.364,-0.276 0.347,-0.326 0.322,-0.395L0.274,-0.532C0.246,-0.459 0.212,-0.363 0.173,-0.246L0.375,-0.246Z" style="fill:white;fill-rule:nonzero;"/>
                        </g>
                        <g transform="matrix(333.337,0,0,333.337,1779.21,1038.96)">
                            <path d="M0.687,-0.211C0.687,-0.205 0.684,-0.202 0.678,-0.202L0.655,-0.203C0.624,-0.204 0.607,-0.199 0.603,-0.187C0.6,-0.179 0.599,-0.15 0.599,-0.1L0.599,-0.068C0.565,-0.039 0.532,-0.018 0.501,-0.006C0.469,0.006 0.431,0.012 0.387,0.012C0.282,0.012 0.198,-0.02 0.136,-0.083C0.074,-0.146 0.043,-0.231 0.043,-0.339C0.043,-0.448 0.073,-0.537 0.134,-0.604C0.195,-0.671 0.275,-0.705 0.374,-0.705C0.417,-0.705 0.465,-0.693 0.516,-0.669C0.531,-0.662 0.544,-0.658 0.554,-0.658C0.567,-0.658 0.575,-0.666 0.579,-0.682C0.582,-0.691 0.586,-0.696 0.591,-0.696C0.596,-0.696 0.599,-0.693 0.599,-0.688C0.599,-0.686 0.598,-0.679 0.597,-0.667C0.593,-0.629 0.591,-0.602 0.591,-0.585L0.592,-0.52C0.593,-0.497 0.593,-0.486 0.593,-0.489C0.592,-0.473 0.587,-0.465 0.58,-0.465C0.574,-0.465 0.571,-0.47 0.57,-0.479C0.567,-0.544 0.548,-0.595 0.514,-0.632C0.48,-0.669 0.435,-0.687 0.38,-0.687C0.311,-0.687 0.256,-0.656 0.216,-0.594C0.175,-0.532 0.155,-0.448 0.155,-0.341C0.155,-0.238 0.175,-0.157 0.217,-0.097C0.258,-0.036 0.313,-0.006 0.383,-0.006C0.436,-0.006 0.473,-0.021 0.493,-0.052C0.503,-0.067 0.508,-0.095 0.508,-0.135C0.508,-0.168 0.505,-0.188 0.499,-0.194C0.492,-0.2 0.47,-0.203 0.433,-0.202C0.424,-0.202 0.418,-0.203 0.415,-0.204C0.412,-0.205 0.411,-0.207 0.411,-0.21C0.411,-0.217 0.418,-0.221 0.433,-0.221L0.451,-0.221C0.461,-0.219 0.496,-0.218 0.557,-0.219L0.641,-0.22C0.646,-0.22 0.651,-0.22 0.656,-0.221L0.667,-0.221C0.68,-0.221 0.687,-0.218 0.687,-0.211Z" style="fill:white;fill-rule:nonzero;"/>
                        </g>
                        <g transform="matrix(333.337,0,0,333.337,2000.88,1038.96)">
                            <path d="M0.562,-0.162C0.562,-0.159 0.561,-0.143 0.56,-0.113C0.559,-0.083 0.558,-0.054 0.558,-0.027L0.558,0.006C0.493,0.003 0.363,0.001 0.17,0.001C0.147,0.001 0.124,0.001 0.101,0.002L0.045,0.002C0.032,0.002 0.026,-0.001 0.026,-0.007C0.026,-0.011 0.028,-0.013 0.032,-0.014C0.034,-0.014 0.047,-0.015 0.07,-0.017C0.087,-0.018 0.098,-0.022 0.102,-0.028C0.105,-0.034 0.107,-0.05 0.107,-0.075L0.107,-0.637C0.107,-0.656 0.104,-0.668 0.099,-0.672C0.093,-0.675 0.075,-0.677 0.044,-0.677C0.033,-0.677 0.028,-0.68 0.028,-0.686C0.028,-0.692 0.035,-0.695 0.05,-0.695L0.221,-0.694C0.227,-0.694 0.265,-0.694 0.334,-0.695L0.474,-0.695C0.494,-0.695 0.512,-0.696 0.529,-0.699C0.53,-0.67 0.533,-0.631 0.538,-0.58L0.542,-0.537C0.543,-0.534 0.543,-0.529 0.543,-0.524C0.543,-0.517 0.54,-0.514 0.534,-0.514C0.527,-0.514 0.521,-0.522 0.518,-0.539C0.505,-0.599 0.485,-0.637 0.456,-0.653C0.435,-0.665 0.379,-0.671 0.288,-0.671L0.206,-0.671L0.206,-0.378L0.23,-0.378C0.305,-0.378 0.35,-0.384 0.367,-0.395C0.383,-0.406 0.394,-0.439 0.4,-0.494C0.401,-0.508 0.405,-0.515 0.411,-0.515C0.418,-0.515 0.422,-0.509 0.422,-0.497C0.422,-0.485 0.421,-0.467 0.42,-0.444C0.419,-0.421 0.418,-0.403 0.418,-0.391C0.418,-0.32 0.419,-0.271 0.422,-0.244C0.423,-0.237 0.423,-0.232 0.423,-0.227C0.423,-0.218 0.419,-0.214 0.412,-0.214C0.407,-0.214 0.404,-0.217 0.403,-0.223C0.401,-0.228 0.398,-0.247 0.394,-0.278C0.389,-0.317 0.372,-0.342 0.345,-0.351C0.333,-0.355 0.302,-0.357 0.251,-0.357L0.206,-0.357L0.206,-0.021C0.353,-0.021 0.439,-0.024 0.464,-0.03C0.508,-0.04 0.533,-0.083 0.539,-0.158C0.54,-0.175 0.545,-0.183 0.552,-0.183C0.559,-0.183 0.562,-0.176 0.562,-0.162Z" style="fill:white;fill-rule:nonzero;"/>
                        </g>
                    </g>
                    <g transform="matrix(0.5612,0,0,0.5612,1522.17,-327.836)">
                        <g transform="matrix(142.761,0,0,142.761,1036.53,1153.73)">
                            <path d="M0.32,-0.357C0.31,-0.376 0.297,-0.392 0.28,-0.403C0.263,-0.414 0.243,-0.42 0.219,-0.42C0.208,-0.42 0.196,-0.419 0.185,-0.416C0.173,-0.413 0.162,-0.409 0.153,-0.404C0.144,-0.398 0.136,-0.391 0.131,-0.382C0.125,-0.373 0.122,-0.363 0.122,-0.35C0.122,-0.328 0.13,-0.312 0.145,-0.302C0.16,-0.292 0.183,-0.283 0.214,-0.276L0.281,-0.26C0.314,-0.253 0.341,-0.238 0.363,-0.216C0.384,-0.193 0.395,-0.165 0.395,-0.132C0.395,-0.107 0.39,-0.085 0.38,-0.067C0.369,-0.048 0.356,-0.033 0.339,-0.022C0.322,-0.01 0.302,-0.001 0.28,0.004C0.258,0.009 0.236,0.012 0.213,0.012C0.177,0.012 0.143,0.005 0.113,-0.009C0.082,-0.022 0.055,-0.046 0.033,-0.079L0.09,-0.118C0.103,-0.097 0.12,-0.08 0.141,-0.067C0.161,-0.054 0.185,-0.048 0.213,-0.048C0.226,-0.048 0.24,-0.049 0.253,-0.053C0.266,-0.056 0.278,-0.06 0.289,-0.067C0.299,-0.073 0.307,-0.081 0.314,-0.091C0.32,-0.101 0.323,-0.113 0.323,-0.126C0.323,-0.149 0.314,-0.166 0.297,-0.177C0.28,-0.187 0.259,-0.195 0.234,-0.201L0.17,-0.216C0.162,-0.218 0.151,-0.221 0.138,-0.226C0.124,-0.231 0.111,-0.238 0.098,-0.247C0.085,-0.256 0.073,-0.269 0.064,-0.284C0.055,-0.299 0.05,-0.317 0.05,-0.339C0.05,-0.363 0.055,-0.384 0.065,-0.402C0.074,-0.42 0.087,-0.435 0.104,-0.446C0.12,-0.457 0.138,-0.466 0.159,-0.472C0.18,-0.477 0.201,-0.48 0.223,-0.48C0.256,-0.48 0.286,-0.474 0.314,-0.461C0.342,-0.448 0.364,-0.427 0.379,-0.396L0.32,-0.357Z" style="fill:white;fill-rule:nonzero;"/>
                        </g>
                        <g transform="matrix(142.761,0,0,142.761,1097.34,1153.73)">
                            <path d="M0.138,-0.257L0.359,-0.468L0.458,-0.468L0.225,-0.254L0.483,-0L0.381,-0L0.138,-0.246L0.138,-0L0.072,-0L0.072,-0.756L0.138,-0.756L0.138,-0.257Z" style="fill:white;fill-rule:nonzero;"/>
                        </g>
                        <g transform="matrix(142.761,0,0,142.761,1166.15,1153.73)">
                            <path d="M0.487,-0.397C0.505,-0.376 0.519,-0.352 0.53,-0.325C0.54,-0.297 0.545,-0.267 0.545,-0.234C0.545,-0.199 0.539,-0.166 0.527,-0.136C0.514,-0.106 0.497,-0.08 0.475,-0.058C0.453,-0.036 0.427,-0.019 0.397,-0.007C0.366,0.006 0.333,0.012 0.296,0.012C0.264,0.012 0.235,0.007 0.209,-0.002C0.182,-0.011 0.159,-0.024 0.139,-0.04L0.072,0.028L0.04,-0.003L0.106,-0.071C0.087,-0.092 0.073,-0.117 0.063,-0.145C0.053,-0.172 0.048,-0.202 0.048,-0.234C0.048,-0.269 0.054,-0.302 0.067,-0.332C0.079,-0.362 0.096,-0.388 0.118,-0.41C0.14,-0.432 0.166,-0.449 0.197,-0.462C0.227,-0.474 0.26,-0.48 0.296,-0.48C0.327,-0.48 0.356,-0.475 0.383,-0.467C0.41,-0.458 0.434,-0.445 0.455,-0.428L0.521,-0.496L0.553,-0.465L0.487,-0.397ZM0.409,-0.381C0.379,-0.407 0.341,-0.42 0.296,-0.42C0.269,-0.42 0.244,-0.415 0.223,-0.406C0.201,-0.396 0.183,-0.383 0.168,-0.366C0.153,-0.349 0.141,-0.33 0.133,-0.307C0.124,-0.284 0.12,-0.26 0.12,-0.234C0.12,-0.189 0.131,-0.151 0.154,-0.12L0.409,-0.381ZM0.184,-0.086C0.199,-0.074 0.215,-0.065 0.234,-0.058C0.253,-0.051 0.273,-0.048 0.296,-0.048C0.323,-0.048 0.348,-0.053 0.37,-0.063C0.391,-0.072 0.41,-0.085 0.425,-0.102C0.44,-0.119 0.452,-0.138 0.461,-0.161C0.469,-0.184 0.473,-0.208 0.473,-0.234C0.473,-0.277 0.462,-0.315 0.439,-0.348L0.184,-0.086Z" style="fill:white;fill-rule:nonzero;"/>
                        </g>
                        <g transform="matrix(142.761,0,0,142.761,1250.81,1153.73)">
                            <path d="M0.079,-0.322C0.079,-0.343 0.079,-0.364 0.078,-0.385C0.077,-0.406 0.076,-0.434 0.075,-0.468L0.14,-0.468L0.14,-0.381L0.142,-0.381C0.147,-0.394 0.153,-0.406 0.162,-0.418C0.171,-0.429 0.181,-0.44 0.194,-0.449C0.206,-0.458 0.22,-0.466 0.237,-0.472C0.253,-0.477 0.271,-0.48 0.292,-0.48C0.311,-0.48 0.327,-0.478 0.341,-0.474L0.328,-0.409C0.319,-0.412 0.307,-0.414 0.29,-0.414C0.265,-0.414 0.243,-0.409 0.225,-0.4C0.207,-0.39 0.192,-0.378 0.18,-0.363C0.168,-0.347 0.159,-0.331 0.154,-0.314C0.148,-0.297 0.145,-0.28 0.145,-0.264L0.145,-0L0.079,-0L0.079,-0.322Z" style="fill:white;fill-rule:nonzero;"/>
                        </g>
                        <g transform="matrix(142.761,0,0,142.761,1298.21,1153.73)">
                            <path d="M0.499,-0.234C0.499,-0.26 0.495,-0.284 0.487,-0.307C0.478,-0.33 0.466,-0.349 0.451,-0.366C0.436,-0.383 0.417,-0.396 0.396,-0.406C0.374,-0.415 0.349,-0.42 0.322,-0.42C0.295,-0.42 0.27,-0.415 0.247,-0.406C0.224,-0.396 0.205,-0.383 0.188,-0.366C0.171,-0.349 0.158,-0.33 0.149,-0.307C0.14,-0.284 0.135,-0.26 0.135,-0.234C0.135,-0.208 0.14,-0.184 0.149,-0.161C0.158,-0.138 0.171,-0.119 0.188,-0.102C0.205,-0.085 0.224,-0.072 0.247,-0.063C0.27,-0.053 0.295,-0.048 0.322,-0.048C0.349,-0.048 0.374,-0.053 0.396,-0.063C0.417,-0.072 0.436,-0.085 0.451,-0.102C0.466,-0.119 0.478,-0.138 0.487,-0.161C0.495,-0.184 0.499,-0.208 0.499,-0.234ZM0.072,-0.468L0.138,-0.468L0.138,-0.39L0.14,-0.39C0.151,-0.406 0.163,-0.42 0.178,-0.431C0.193,-0.442 0.208,-0.452 0.224,-0.459C0.24,-0.466 0.257,-0.472 0.274,-0.475C0.291,-0.478 0.307,-0.48 0.322,-0.48C0.359,-0.48 0.392,-0.474 0.423,-0.462C0.453,-0.449 0.479,-0.432 0.501,-0.41C0.523,-0.388 0.54,-0.362 0.553,-0.332C0.565,-0.302 0.571,-0.269 0.571,-0.234C0.571,-0.199 0.565,-0.166 0.553,-0.136C0.54,-0.106 0.523,-0.08 0.501,-0.058C0.479,-0.036 0.453,-0.019 0.423,-0.007C0.392,0.006 0.359,0.012 0.322,0.012C0.307,0.012 0.291,0.01 0.274,0.007C0.257,0.004 0.24,-0.002 0.224,-0.009C0.208,-0.016 0.193,-0.026 0.178,-0.037C0.163,-0.048 0.151,-0.062 0.14,-0.078L0.138,-0.078L0.138,0.288L0.072,0.288L0.072,-0.468Z" style="fill:white;fill-rule:nonzero;"/>
                        </g>
                        <g transform="matrix(142.761,0,0,142.761,1385.44,1153.73)">
                            <path d="M0.168,-0.648C0.168,-0.634 0.163,-0.623 0.153,-0.614C0.143,-0.604 0.132,-0.6 0.12,-0.6C0.108,-0.6 0.097,-0.604 0.087,-0.614C0.077,-0.623 0.072,-0.634 0.072,-0.648C0.072,-0.662 0.077,-0.674 0.087,-0.683C0.097,-0.692 0.108,-0.696 0.12,-0.696C0.132,-0.696 0.143,-0.692 0.153,-0.683C0.163,-0.674 0.168,-0.662 0.168,-0.648ZM0.153,-0L0.087,-0L0.087,-0.468L0.153,-0.468L0.153,-0Z" style="fill:white;fill-rule:nonzero;"/>
                        </g>
                        <g transform="matrix(142.761,0,0,142.761,1419.7,1153.73)">
                            <path d="M0.135,-0.468C0.136,-0.455 0.137,-0.443 0.138,-0.431C0.138,-0.418 0.138,-0.406 0.138,-0.393L0.14,-0.393C0.147,-0.406 0.157,-0.417 0.168,-0.428C0.179,-0.439 0.192,-0.448 0.206,-0.456C0.22,-0.463 0.235,-0.469 0.251,-0.474C0.266,-0.478 0.282,-0.48 0.297,-0.48C0.357,-0.48 0.401,-0.464 0.43,-0.433C0.459,-0.401 0.473,-0.356 0.473,-0.297L0.473,-0L0.407,-0L0.407,-0.259C0.407,-0.311 0.398,-0.351 0.38,-0.379C0.362,-0.406 0.329,-0.42 0.28,-0.42C0.277,-0.42 0.267,-0.419 0.252,-0.416C0.237,-0.413 0.221,-0.406 0.204,-0.394C0.187,-0.382 0.171,-0.364 0.158,-0.34C0.145,-0.316 0.138,-0.283 0.138,-0.24L0.138,-0L0.072,-0L0.072,-0.365C0.072,-0.378 0.072,-0.394 0.071,-0.413C0.07,-0.432 0.068,-0.451 0.067,-0.468L0.135,-0.468Z" style="fill:white;fill-rule:nonzero;"/>
                        </g>
                        <g transform="matrix(142.761,0,0,142.761,1499.07,1153.73)">
                            <path d="M0.12,-0.24C0.12,-0.215 0.125,-0.192 0.134,-0.171C0.142,-0.149 0.155,-0.13 0.171,-0.114C0.186,-0.097 0.205,-0.084 0.226,-0.075C0.247,-0.065 0.269,-0.06 0.294,-0.06C0.318,-0.06 0.341,-0.064 0.363,-0.073C0.384,-0.082 0.403,-0.094 0.42,-0.11C0.437,-0.125 0.45,-0.144 0.459,-0.166C0.468,-0.188 0.472,-0.213 0.471,-0.24C0.471,-0.265 0.467,-0.288 0.459,-0.31C0.451,-0.331 0.439,-0.35 0.424,-0.367C0.409,-0.383 0.39,-0.396 0.368,-0.406C0.346,-0.415 0.321,-0.42 0.294,-0.42C0.269,-0.42 0.247,-0.415 0.226,-0.406C0.205,-0.396 0.186,-0.383 0.171,-0.367C0.155,-0.35 0.142,-0.331 0.134,-0.31C0.125,-0.288 0.12,-0.265 0.12,-0.24ZM0.108,0.094C0.127,0.12 0.153,0.141 0.184,0.157C0.215,0.172 0.249,0.18 0.287,0.18C0.32,0.18 0.349,0.175 0.372,0.166C0.395,0.156 0.414,0.143 0.429,0.126C0.443,0.109 0.453,0.09 0.46,0.068C0.466,0.045 0.469,0.021 0.469,-0.004L0.469,-0.088L0.467,-0.088C0.446,-0.056 0.42,-0.033 0.389,-0.02C0.358,-0.007 0.326,-0 0.292,-0C0.258,-0 0.226,-0.006 0.197,-0.018C0.167,-0.03 0.141,-0.047 0.119,-0.068C0.097,-0.089 0.08,-0.114 0.067,-0.143C0.054,-0.172 0.048,-0.204 0.048,-0.238C0.048,-0.272 0.054,-0.304 0.066,-0.333C0.078,-0.362 0.095,-0.388 0.116,-0.41C0.136,-0.432 0.162,-0.449 0.191,-0.462C0.22,-0.474 0.251,-0.48 0.286,-0.48C0.3,-0.48 0.315,-0.479 0.331,-0.476C0.346,-0.473 0.362,-0.469 0.378,-0.462C0.393,-0.455 0.409,-0.446 0.424,-0.435C0.439,-0.423 0.454,-0.408 0.467,-0.39L0.469,-0.39L0.469,-0.468L0.535,-0.468L0.535,-0.004C0.535,0.021 0.532,0.048 0.526,0.077C0.519,0.106 0.507,0.132 0.489,0.156C0.47,0.18 0.445,0.2 0.412,0.216C0.379,0.232 0.337,0.24 0.284,0.24C0.237,0.24 0.196,0.232 0.159,0.217C0.122,0.202 0.089,0.178 0.059,0.146L0.108,0.094Z" style="fill:white;fill-rule:nonzero;"/>
                        </g>
                        <g transform="matrix(142.761,0,0,142.761,1625.99,1153.73)">
                            <path d="M0.278,-0L0.204,-0L0.014,-0.468L0.093,-0.468L0.242,-0.074L0.244,-0.074L0.393,-0.468L0.468,-0.468L0.278,-0Z" style="fill:white;fill-rule:nonzero;"/>
                        </g>
                        <g transform="matrix(142.761,0,0,142.761,1694.8,1153.73)">
                            <path d="M0.436,-0.27C0.436,-0.315 0.423,-0.351 0.396,-0.379C0.369,-0.406 0.332,-0.42 0.284,-0.42C0.263,-0.42 0.242,-0.416 0.222,-0.408C0.202,-0.399 0.185,-0.388 0.17,-0.374C0.155,-0.36 0.142,-0.344 0.134,-0.326C0.125,-0.308 0.12,-0.289 0.12,-0.27L0.436,-0.27ZM0.118,-0.216C0.12,-0.193 0.126,-0.171 0.135,-0.15C0.144,-0.129 0.157,-0.112 0.172,-0.097C0.187,-0.082 0.205,-0.07 0.225,-0.061C0.245,-0.052 0.267,-0.048 0.29,-0.048C0.325,-0.048 0.356,-0.056 0.382,-0.073C0.407,-0.089 0.427,-0.108 0.44,-0.129L0.491,-0.087C0.463,-0.052 0.432,-0.026 0.399,-0.011C0.365,0.004 0.329,0.012 0.29,0.012C0.255,0.012 0.223,0.006 0.194,-0.007C0.164,-0.019 0.138,-0.036 0.117,-0.058C0.096,-0.08 0.079,-0.106 0.067,-0.136C0.054,-0.166 0.048,-0.199 0.048,-0.234C0.048,-0.269 0.054,-0.302 0.066,-0.332C0.078,-0.362 0.095,-0.388 0.116,-0.41C0.137,-0.432 0.162,-0.449 0.191,-0.462C0.22,-0.474 0.251,-0.48 0.284,-0.48C0.319,-0.48 0.351,-0.474 0.379,-0.461C0.407,-0.448 0.431,-0.432 0.45,-0.411C0.468,-0.39 0.483,-0.365 0.493,-0.337C0.503,-0.308 0.508,-0.278 0.508,-0.246L0.508,-0.216L0.118,-0.216Z" style="fill:white;fill-rule:nonzero;"/>
                        </g>
                        <g transform="matrix(142.761,0,0,142.761,1774.17,1153.73)">
                            <rect x="0.087" y="-0.756" width="0.066" height="0.756" style="fill:white;fill-rule:nonzero;"/>
                        </g>
                        <g transform="matrix(142.761,0,0,142.761,1808.44,1153.73)">
                            <path d="M0.278,-0L0.204,-0L0.014,-0.468L0.093,-0.468L0.242,-0.074L0.244,-0.074L0.393,-0.468L0.468,-0.468L0.278,-0Z" style="fill:white;fill-rule:nonzero;"/>
                        </g>
                        <g transform="matrix(142.761,0,0,142.761,1877.25,1153.73)">
                            <path d="M0.738,-0.27C0.738,-0.292 0.735,-0.312 0.728,-0.331C0.721,-0.349 0.712,-0.365 0.699,-0.378C0.686,-0.391 0.671,-0.402 0.654,-0.409C0.636,-0.416 0.616,-0.42 0.594,-0.42C0.574,-0.42 0.556,-0.416 0.539,-0.409C0.522,-0.401 0.507,-0.39 0.494,-0.377C0.481,-0.364 0.471,-0.348 0.464,-0.33C0.457,-0.311 0.453,-0.291 0.453,-0.27L0.738,-0.27ZM0.25,-0.216C0.236,-0.216 0.221,-0.215 0.206,-0.212C0.191,-0.209 0.177,-0.205 0.164,-0.199C0.151,-0.192 0.141,-0.184 0.133,-0.174C0.124,-0.163 0.12,-0.15 0.12,-0.134C0.12,-0.119 0.123,-0.106 0.13,-0.095C0.136,-0.084 0.144,-0.075 0.155,-0.068C0.166,-0.061 0.178,-0.056 0.191,-0.053C0.204,-0.049 0.217,-0.048 0.23,-0.048C0.254,-0.048 0.276,-0.052 0.295,-0.06C0.314,-0.068 0.331,-0.079 0.345,-0.093C0.358,-0.107 0.369,-0.124 0.376,-0.143C0.383,-0.162 0.387,-0.184 0.387,-0.207L0.387,-0.216L0.25,-0.216ZM0.453,-0.216L0.453,-0.207C0.453,-0.186 0.456,-0.165 0.463,-0.146C0.469,-0.127 0.478,-0.11 0.49,-0.096C0.501,-0.081 0.516,-0.07 0.533,-0.061C0.55,-0.052 0.569,-0.048 0.59,-0.048C0.61,-0.048 0.627,-0.05 0.643,-0.054C0.658,-0.058 0.671,-0.064 0.682,-0.071C0.693,-0.078 0.703,-0.086 0.712,-0.095C0.721,-0.104 0.729,-0.114 0.736,-0.124L0.788,-0.083C0.763,-0.05 0.733,-0.026 0.699,-0.011C0.664,0.004 0.629,0.012 0.592,0.012C0.557,0.012 0.523,0.003 0.491,-0.014C0.459,-0.031 0.434,-0.059 0.417,-0.097C0.394,-0.057 0.366,-0.029 0.333,-0.013C0.3,0.004 0.258,0.012 0.209,0.012C0.188,0.012 0.168,0.009 0.149,0.004C0.13,-0.002 0.113,-0.011 0.098,-0.023C0.083,-0.034 0.07,-0.049 0.062,-0.066C0.053,-0.083 0.048,-0.102 0.048,-0.125C0.048,-0.156 0.055,-0.182 0.069,-0.201C0.083,-0.22 0.101,-0.234 0.123,-0.245C0.145,-0.255 0.169,-0.262 0.197,-0.265C0.224,-0.268 0.25,-0.27 0.276,-0.27L0.387,-0.27L0.387,-0.299C0.386,-0.324 0.381,-0.344 0.372,-0.36C0.363,-0.375 0.352,-0.388 0.339,-0.397C0.326,-0.406 0.313,-0.412 0.3,-0.415C0.287,-0.418 0.276,-0.42 0.267,-0.42C0.212,-0.42 0.164,-0.401 0.125,-0.364L0.084,-0.412C0.107,-0.433 0.134,-0.45 0.166,-0.462C0.197,-0.474 0.232,-0.48 0.27,-0.48C0.306,-0.48 0.338,-0.471 0.366,-0.454C0.394,-0.437 0.414,-0.415 0.425,-0.39C0.44,-0.418 0.464,-0.44 0.495,-0.456C0.526,-0.472 0.558,-0.48 0.592,-0.48C0.627,-0.48 0.657,-0.474 0.684,-0.462C0.71,-0.45 0.732,-0.434 0.75,-0.413C0.768,-0.392 0.782,-0.367 0.791,-0.338C0.8,-0.309 0.804,-0.279 0.804,-0.246L0.804,-0.216L0.453,-0.216Z" style="fill:white;fill-rule:nonzero;"/>
                        </g>
                        <g transform="matrix(142.761,0,0,142.761,1998.88,1153.73)">
                            <path d="M0.079,-0.322C0.079,-0.343 0.079,-0.364 0.078,-0.385C0.077,-0.406 0.076,-0.434 0.075,-0.468L0.14,-0.468L0.14,-0.381L0.142,-0.381C0.147,-0.394 0.153,-0.406 0.162,-0.418C0.171,-0.429 0.181,-0.44 0.194,-0.449C0.206,-0.458 0.22,-0.466 0.237,-0.472C0.253,-0.477 0.271,-0.48 0.292,-0.48C0.311,-0.48 0.327,-0.478 0.341,-0.474L0.328,-0.409C0.319,-0.412 0.307,-0.414 0.29,-0.414C0.265,-0.414 0.243,-0.409 0.225,-0.4C0.207,-0.39 0.192,-0.378 0.18,-0.363C0.168,-0.347 0.159,-0.331 0.154,-0.314C0.148,-0.297 0.145,-0.28 0.145,-0.264L0.145,-0L0.079,-0L0.079,-0.322Z" style="fill:white;fill-rule:nonzero;"/>
                        </g>
                        <g transform="matrix(142.761,0,0,142.761,2043.71,1153.73)">
                            <path d="M0.436,-0.27C0.436,-0.315 0.423,-0.351 0.396,-0.379C0.369,-0.406 0.332,-0.42 0.284,-0.42C0.263,-0.42 0.242,-0.416 0.222,-0.408C0.202,-0.399 0.185,-0.388 0.17,-0.374C0.155,-0.36 0.142,-0.344 0.134,-0.326C0.125,-0.308 0.12,-0.289 0.12,-0.27L0.436,-0.27ZM0.118,-0.216C0.12,-0.193 0.126,-0.171 0.135,-0.15C0.144,-0.129 0.157,-0.112 0.172,-0.097C0.187,-0.082 0.205,-0.07 0.225,-0.061C0.245,-0.052 0.267,-0.048 0.29,-0.048C0.325,-0.048 0.356,-0.056 0.382,-0.073C0.407,-0.089 0.427,-0.108 0.44,-0.129L0.491,-0.087C0.463,-0.052 0.432,-0.026 0.399,-0.011C0.365,0.004 0.329,0.012 0.29,0.012C0.255,0.012 0.223,0.006 0.194,-0.007C0.164,-0.019 0.138,-0.036 0.117,-0.058C0.096,-0.08 0.079,-0.106 0.067,-0.136C0.054,-0.166 0.048,-0.199 0.048,-0.234C0.048,-0.269 0.054,-0.302 0.066,-0.332C0.078,-0.362 0.095,-0.388 0.116,-0.41C0.137,-0.432 0.162,-0.449 0.191,-0.462C0.22,-0.474 0.251,-0.48 0.284,-0.48C0.319,-0.48 0.351,-0.474 0.379,-0.461C0.407,-0.448 0.431,-0.432 0.45,-0.411C0.468,-0.39 0.483,-0.365 0.493,-0.337C0.503,-0.308 0.508,-0.278 0.508,-0.246L0.508,-0.216L0.118,-0.216Z" style="fill:white;fill-rule:nonzero;"/>
                        </g>
                    </g>
                </g>
            </g>
        </g>
    </g>
</svg>
